REM GENRE Classical
REM DATE 1972
PERFORMER Wolfgang Sawallisch
TITLE Petite Messe solennelle – Vocal Highlights
FILE "petite_messe_solennelle.ogg" OGG
  TRACK 01 AUDIO
    TITLE Kyrie – I. Kyrie eleison
    PERFORMER Wolfgang Sawallisch, Müchner Vocalsolisten
    INDEX 01 00:01:45
  TRACK 02 AUDIO
    TITLE Kyrie – II. Christe eleison
    PERFORMER Wolfgang Sawallisch, Müchner Vocalsolisten
    INDEX 01 03:30:00
  TRACK 03 AUDIO
    TITLE Kyrie – III. Kyrie eleison
    PERFORMER Wolfgang Sawallisch, Müchner Vocalsolisten
    INDEX 01 05:03:22
  TRACK 04 AUDIO
    TITLE Gloria – IV. Gloria in excelsis Deo
    PERFORMER Wolfgang Sawallisch, Müchner Vocalsolisten
    INDEX 01 08:28:00
  TRACK 05 AUDIO
    TITLE Gloria – IV. Laudamus te
    PERFORMER Wolfgang Sawallisch, Kari Lovaas, Brigitte Fassbaender, Peter Schreier, Dietrich Fischer-Dieskau
    INDEX 01 09:18:60
  TRACK 06 AUDIO
    TITLE Gloria – VI. Domine Deus
    PERFORMER Wolfgang Sawallisch, Peter Schreier
    INDEX 01 11:08:45
  TRACK 07 AUDIO
    TITLE Gloria – VII. Qui tollis
    PERFORMER Wolfgang Sawallisch, Kari Lovaas, Brigitte Fassbaender
    INDEX 01 14:46:00
  TRACK 08 AUDIO
    TITLE Gloria – VIII. Quoniam
    PERFORMER Wolfgang Sawallisch, Dietrich Fischer-Dieskau
    INDEX 01 19:30:00
  TRACK 09 AUDIO
    TITLE Gloria – IX. Cum Sancto Spiritu
    PERFORMER Wolfgang Sawallisch, Müchner Vocalsolisten
    INDEX 01 24:09:60
  TRACK 10 AUDIO
    TITLE Credo – X. Credo in unum Deo
    PERFORMER Wolfgang Sawallisch, Müchner Vocalsolisten
    INDEX 01 29:02:67
  TRACK 11 AUDIO
    TITLE Credo – XI. Crucifixus
    PERFORMER Wolfgang Sawallisch, Brigitte Fassbaender
    INDEX 01 33:22:00
  TRACK 12 AUDIO
    TITLE Credo – XII. Et resurrexit
    PERFORMER Wolfgang Sawallisch, Müchner Vocalsolisten
    INDEX 01 36:43:67
  TRACK 13 AUDIO
    TITLE Sanctus – XVI. Sanctus
    PERFORMER Wolfgang Sawallisch, Kari Lovaas, Brigitte Fassbaender, Peter Schreier, Dietrich Fischer-Dieskau
    INDEX 01 45:26:67
  TRACK 14 AUDIO
    TITLE Sanctus – XVIII. Agnus Dei
    PERFORMER Wolfgang Sawallisch, Müchner Vocalsolisten, Brigitte Fassbaender
    INDEX 01 49:59:45
